{
    "asset" : {
        "generator" : "Khronos glTF Blender I/O v1.4.40",
        "version" : "2.0"
    },
    "scene" : 0,
    "scenes" : [
        {
            "name" : "Scene",
            "nodes" : [
                1,
                2
            ]
        }
    ],
    "nodes" : [
        {
            "mesh" : 0,
            "name" : "12mm_die.1",
            "rotation" : [
                -0.7071067094802856,
                0,
                0,
                0.7071068286895752
            ],
            "scale" : [
                0.01329999789595604,
                0.013299996964633465,
                0.013299996964633465
            ]
        },
        {
            "children" : [
                0
            ],
            "name" : "RootNode.0"
        },
        {
            "name" : "RootNode.001"
        }
    ],
    "materials" : [
        {
            "doubleSided" : true,
            "name" : "Material.001",
            "normalTexture" : {
                "index" : 0,
                "texCoord" : 0
            },
            "pbrMetallicRoughness" : {
                "baseColorTexture" : {
                    "index" : 1,
                    "texCoord" : 0
                },
                "metallicFactor" : 0,
                "roughnessFactor" : 0.5
            }
        }
    ],
    "meshes" : [
        {
            "name" : "Mesh_0",
            "primitives" : [
                {
                    "attributes" : {
                        "POSITION" : 0,
                        "NORMAL" : 1,
                        "TANGENT" : 2,
                        "TEXCOORD_0" : 3
                    },
                    "indices" : 4,
                    "material" : 0
                }
            ]
        }
    ],
    "textures" : [
        {
            "sampler" : 0,
            "source" : 0
        },
        {
            "sampler" : 0,
            "source" : 1
        }
    ],
    "images" : [
        {
            "mimeType" : "image/png",
            "name" : "Image_2",
            "uri" : "Image_2.png"
        },
        {
            "mimeType" : "image/png",
            "name" : "Image_0",
            "uri" : "Image_0.png"
        }
    ],
    "accessors" : [
        {
            "bufferView" : 0,
            "componentType" : 5126,
            "count" : 6924,
            "max" : [
                6.000011920928955,
                6.000018119812012,
                6.1548590660095215
            ],
            "min" : [
                -5.999989032745361,
                -5.999980926513672,
                -5.845142841339111
            ],
            "type" : "VEC3"
        },
        {
            "bufferView" : 1,
            "componentType" : 5126,
            "count" : 6924,
            "type" : "VEC3"
        },
        {
            "bufferView" : 2,
            "componentType" : 5126,
            "count" : 6924,
            "type" : "VEC4"
        },
        {
            "bufferView" : 3,
            "componentType" : 5126,
            "count" : 6924,
            "type" : "VEC2"
        },
        {
            "bufferView" : 4,
            "componentType" : 5123,
            "count" : 34098,
            "type" : "SCALAR"
        }
    ],
    "bufferViews" : [
        {
            "buffer" : 0,
            "byteLength" : 83088,
            "byteOffset" : 0
        },
        {
            "buffer" : 0,
            "byteLength" : 83088,
            "byteOffset" : 83088
        },
        {
            "buffer" : 0,
            "byteLength" : 110784,
            "byteOffset" : 166176
        },
        {
            "buffer" : 0,
            "byteLength" : 55392,
            "byteOffset" : 276960
        },
        {
            "buffer" : 0,
            "byteLength" : 68196,
            "byteOffset" : 332352
        }
    ],
    "samplers" : [
        {
            "magFilter" : 9729,
            "minFilter" : 9986
        }
    ],
    "buffers" : [
        {
            "byteLength" : 400548,
            "uri" : "dice.bin"
        }
    ]
}
